<?xml version="1.0" encoding="utf-8"?>
<!-- Generator: Adobe Illustrator 23.0.0, SVG Export Plug-In . SVG Version: 6.00 Build 0)  -->
<svg version="1.1" id="Layer_1" xmlns="http://www.w3.org/2000/svg" xmlns:xlink="http://www.w3.org/1999/xlink" x="0px" y="0px"
	 viewBox="0 0 54 76.8" style="enable-background:new 0 0 54 76.8;" xml:space="preserve">
<style type="text/css">
	.st0{fill:#00C3DA;}
</style>
<g transform="matrix(0.373465 0 0 0.373465 160.393 160.393)">
	<g>
		<g>
			<path class="st0" d="M-357.2-416.9c-36.6,0-66.4,29.8-66.4,66.4c0,45.4,59.4,112.1,61.9,114.9c2.4,2.6,6.5,2.6,8.9,0
				c2.5-2.8,61.9-69.5,61.9-114.9C-290.8-387.1-320.6-416.9-357.2-416.9z M-357.2-317.1c-18.4,0-33.4-15-33.4-33.4
				s15-33.4,33.4-33.4s33.4,15,33.4,33.4S-338.8-317.1-357.2-317.1z"/>
		</g>
	</g>
</g>
</svg>
